<mxfile host="app.diagrams.net" modified="2024-05-03T13:32:50.142Z" agent="Mozilla/5.0 (Windows NT 10.0; Win64; x64) AppleWebKit/537.36 (KHTML, like Gecko) Chrome/124.0.0.0 Safari/537.36" etag="u5tb8tgf5PU1BcVjjBhS" version="24.3.1" type="device">
  <diagram name="Page-1" id="tnvgZM0FmMJcun1g3rQK">
    <mxGraphModel dx="1509" dy="785" grid="1" gridSize="10" guides="1" tooltips="1" connect="1" arrows="1" fold="1" page="1" pageScale="1" pageWidth="850" pageHeight="1100" math="0" shadow="0">
      <root>
        <mxCell id="0" />
        <mxCell id="1" parent="0" />
        <mxCell id="CBmkhV6_umnjb5PWB3v--4" value="" style="edgeStyle=orthogonalEdgeStyle;rounded=0;orthogonalLoop=1;jettySize=auto;html=1;" parent="1" source="fBTSU7Vrl2NQmRgdZAIL-24" target="CBmkhV6_umnjb5PWB3v--2" edge="1">
          <mxGeometry relative="1" as="geometry" />
        </mxCell>
        <mxCell id="fBTSU7Vrl2NQmRgdZAIL-24" value="위에서부터" style="ellipse;whiteSpace=wrap;html=1;align=center;fillColor=#f8cecc;strokeColor=#b85450;" parent="1" vertex="1">
          <mxGeometry x="200" y="280" width="100" height="40" as="geometry" />
        </mxCell>
        <mxCell id="CBmkhV6_umnjb5PWB3v--15" style="edgeStyle=orthogonalEdgeStyle;rounded=0;orthogonalLoop=1;jettySize=auto;html=1;entryX=0.41;entryY=0.02;entryDx=0;entryDy=0;entryPerimeter=0;" parent="1" source="fBTSU7Vrl2NQmRgdZAIL-26" target="CBmkhV6_umnjb5PWB3v--12" edge="1">
          <mxGeometry relative="1" as="geometry">
            <Array as="points">
              <mxPoint x="415" y="640" />
              <mxPoint x="415" y="330" />
              <mxPoint x="570" y="330" />
              <mxPoint x="570" y="351" />
            </Array>
          </mxGeometry>
        </mxCell>
        <mxCell id="fBTSU7Vrl2NQmRgdZAIL-26" value="스플릿 확인" style="whiteSpace=wrap;html=1;align=center;" parent="1" vertex="1">
          <mxGeometry x="200" y="620" width="100" height="40" as="geometry" />
        </mxCell>
        <mxCell id="CBmkhV6_umnjb5PWB3v--6" value="스탠 or 더블" style="edgeStyle=orthogonalEdgeStyle;rounded=0;orthogonalLoop=1;jettySize=auto;html=1;entryX=0.5;entryY=0;entryDx=0;entryDy=0;" parent="1" source="fBTSU7Vrl2NQmRgdZAIL-27" target="fBTSU7Vrl2NQmRgdZAIL-26" edge="1">
          <mxGeometry relative="1" as="geometry" />
        </mxCell>
        <mxCell id="CBmkhV6_umnjb5PWB3v--7" value="스플릿 추가" style="edgeStyle=orthogonalEdgeStyle;rounded=0;orthogonalLoop=1;jettySize=auto;html=1;entryX=0.5;entryY=0;entryDx=0;entryDy=0;" parent="1" source="fBTSU7Vrl2NQmRgdZAIL-27" target="CBmkhV6_umnjb5PWB3v--1" edge="1">
          <mxGeometry x="-0.0429" y="12" relative="1" as="geometry">
            <mxPoint as="offset" />
            <Array as="points">
              <mxPoint x="260" y="485" />
              <mxPoint x="340" y="485" />
            </Array>
          </mxGeometry>
        </mxCell>
        <mxCell id="CBmkhV6_umnjb5PWB3v--8" value="힛" style="edgeStyle=orthogonalEdgeStyle;rounded=0;orthogonalLoop=1;jettySize=auto;html=1;entryX=0.5;entryY=0;entryDx=0;entryDy=0;" parent="1" source="fBTSU7Vrl2NQmRgdZAIL-27" target="fBTSU7Vrl2NQmRgdZAIL-28" edge="1">
          <mxGeometry x="0.0133" y="-13" relative="1" as="geometry">
            <mxPoint as="offset" />
            <Array as="points">
              <mxPoint x="240" y="485" />
              <mxPoint x="150" y="485" />
            </Array>
          </mxGeometry>
        </mxCell>
        <mxCell id="fBTSU7Vrl2NQmRgdZAIL-27" value="힛, 스탠, 더블, 스플릿&lt;div&gt;입력&lt;/div&gt;" style="whiteSpace=wrap;html=1;align=center;" parent="1" vertex="1">
          <mxGeometry x="172.5" y="420" width="155" height="40" as="geometry" />
        </mxCell>
        <mxCell id="CBmkhV6_umnjb5PWB3v--9" value="버스트 or 21" style="edgeStyle=orthogonalEdgeStyle;rounded=0;orthogonalLoop=1;jettySize=auto;html=1;" parent="1" source="fBTSU7Vrl2NQmRgdZAIL-28" edge="1">
          <mxGeometry relative="1" as="geometry">
            <mxPoint x="240" y="620" as="targetPoint" />
            <Array as="points">
              <mxPoint x="150" y="600" />
              <mxPoint x="240" y="600" />
              <mxPoint x="240" y="620" />
            </Array>
          </mxGeometry>
        </mxCell>
        <mxCell id="CBmkhV6_umnjb5PWB3v--10" value="N" style="edgeStyle=orthogonalEdgeStyle;rounded=0;orthogonalLoop=1;jettySize=auto;html=1;entryX=0.363;entryY=-0.059;entryDx=0;entryDy=0;entryPerimeter=0;" parent="1" source="fBTSU7Vrl2NQmRgdZAIL-28" target="CBmkhV6_umnjb5PWB3v--2" edge="1">
          <mxGeometry x="-0.914" y="-15" relative="1" as="geometry">
            <Array as="points">
              <mxPoint x="60" y="545" />
              <mxPoint x="60" y="330" />
              <mxPoint x="236" y="330" />
            </Array>
            <mxPoint as="offset" />
            <mxPoint x="180" y="370" as="targetPoint" />
          </mxGeometry>
        </mxCell>
        <mxCell id="fBTSU7Vrl2NQmRgdZAIL-28" value="버스트 확인&lt;div&gt;21 확인&lt;/div&gt;" style="whiteSpace=wrap;html=1;align=center;" parent="1" vertex="1">
          <mxGeometry x="100" y="510" width="100" height="70" as="geometry" />
        </mxCell>
        <mxCell id="CBmkhV6_umnjb5PWB3v--11" style="edgeStyle=orthogonalEdgeStyle;rounded=0;orthogonalLoop=1;jettySize=auto;html=1;entryX=0.615;entryY=-0.033;entryDx=0;entryDy=0;entryPerimeter=0;" parent="1" source="CBmkhV6_umnjb5PWB3v--1" target="CBmkhV6_umnjb5PWB3v--2" edge="1">
          <mxGeometry relative="1" as="geometry">
            <Array as="points">
              <mxPoint x="400" y="530" />
              <mxPoint x="400" y="330" />
              <mxPoint x="262" y="330" />
              <mxPoint x="262" y="349" />
            </Array>
            <mxPoint x="330" y="350" as="targetPoint" />
          </mxGeometry>
        </mxCell>
        <mxCell id="CBmkhV6_umnjb5PWB3v--1" value="스플릿 추가" style="whiteSpace=wrap;html=1;align=center;" parent="1" vertex="1">
          <mxGeometry x="290" y="510" width="100" height="40" as="geometry" />
        </mxCell>
        <mxCell id="CBmkhV6_umnjb5PWB3v--5" value="" style="edgeStyle=orthogonalEdgeStyle;rounded=0;orthogonalLoop=1;jettySize=auto;html=1;" parent="1" source="CBmkhV6_umnjb5PWB3v--2" target="fBTSU7Vrl2NQmRgdZAIL-27" edge="1">
          <mxGeometry relative="1" as="geometry" />
        </mxCell>
        <mxCell id="CBmkhV6_umnjb5PWB3v--2" value="메뉴 구성" style="whiteSpace=wrap;html=1;align=center;" parent="1" vertex="1">
          <mxGeometry x="200" y="350" width="100" height="40" as="geometry" />
        </mxCell>
        <mxCell id="CBmkhV6_umnjb5PWB3v--16" value="" style="edgeStyle=orthogonalEdgeStyle;rounded=0;orthogonalLoop=1;jettySize=auto;html=1;" parent="1" source="CBmkhV6_umnjb5PWB3v--12" target="CBmkhV6_umnjb5PWB3v--13" edge="1">
          <mxGeometry relative="1" as="geometry" />
        </mxCell>
        <mxCell id="CBmkhV6_umnjb5PWB3v--12" value="스플릿의 메뉴&lt;div&gt;구성&lt;/div&gt;" style="whiteSpace=wrap;html=1;align=center;" parent="1" vertex="1">
          <mxGeometry x="530" y="350" width="100" height="40" as="geometry" />
        </mxCell>
        <mxCell id="CBmkhV6_umnjb5PWB3v--18" value="스탠 or 더블" style="edgeStyle=orthogonalEdgeStyle;rounded=0;orthogonalLoop=1;jettySize=auto;html=1;" parent="1" source="CBmkhV6_umnjb5PWB3v--13" target="CBmkhV6_umnjb5PWB3v--17" edge="1">
          <mxGeometry x="-0.7778" y="-30" relative="1" as="geometry">
            <mxPoint as="offset" />
          </mxGeometry>
        </mxCell>
        <mxCell id="CBmkhV6_umnjb5PWB3v--19" value="힛" style="edgeStyle=orthogonalEdgeStyle;rounded=0;orthogonalLoop=1;jettySize=auto;html=1;" parent="1" source="CBmkhV6_umnjb5PWB3v--13" target="CBmkhV6_umnjb5PWB3v--14" edge="1">
          <mxGeometry x="-0.2267" y="13" relative="1" as="geometry">
            <mxPoint as="offset" />
            <Array as="points">
              <mxPoint x="590" y="485" />
              <mxPoint x="680" y="485" />
            </Array>
          </mxGeometry>
        </mxCell>
        <mxCell id="CBmkhV6_umnjb5PWB3v--13" value="힛, 스탠, 더블&lt;div&gt;입력&lt;/div&gt;" style="whiteSpace=wrap;html=1;align=center;" parent="1" vertex="1">
          <mxGeometry x="502.5" y="420" width="155" height="40" as="geometry" />
        </mxCell>
        <mxCell id="CBmkhV6_umnjb5PWB3v--20" value="N" style="edgeStyle=orthogonalEdgeStyle;rounded=0;orthogonalLoop=1;jettySize=auto;html=1;entryX=0.5;entryY=0;entryDx=0;entryDy=0;" parent="1" source="CBmkhV6_umnjb5PWB3v--14" target="CBmkhV6_umnjb5PWB3v--12" edge="1">
          <mxGeometry x="-0.914" y="15" relative="1" as="geometry">
            <Array as="points">
              <mxPoint x="770" y="545" />
              <mxPoint x="770" y="330" />
              <mxPoint x="580" y="330" />
            </Array>
            <mxPoint as="offset" />
          </mxGeometry>
        </mxCell>
        <mxCell id="CBmkhV6_umnjb5PWB3v--14" value="버스트 확인&lt;div&gt;21 확인&lt;/div&gt;" style="whiteSpace=wrap;html=1;align=center;" parent="1" vertex="1">
          <mxGeometry x="630" y="510" width="100" height="70" as="geometry" />
        </mxCell>
        <mxCell id="CBmkhV6_umnjb5PWB3v--17" value="DealerTurn으로" style="ellipse;whiteSpace=wrap;html=1;align=center;fillColor=#f8cecc;strokeColor=#b85450;" parent="1" vertex="1">
          <mxGeometry x="530" y="640" width="100" height="40" as="geometry" />
        </mxCell>
        <mxCell id="h7EIYUhnFqP6_lFAipXG-1" style="edgeStyle=orthogonalEdgeStyle;rounded=0;orthogonalLoop=1;jettySize=auto;html=1;entryX=0.621;entryY=0.007;entryDx=0;entryDy=0;entryPerimeter=0;" edge="1" parent="1" source="CBmkhV6_umnjb5PWB3v--14" target="CBmkhV6_umnjb5PWB3v--17">
          <mxGeometry relative="1" as="geometry" />
        </mxCell>
      </root>
    </mxGraphModel>
  </diagram>
</mxfile>
